<svg xmlns="http://www.w3.org/2000/svg" width="190.911" height="126.873" viewBox="0 0 190.911 126.873">
  <g id="forgot_password" data-name="forgot password" transform="translate(0 0)">
    <path id="Path_10857" data-name="Path 10857" d="M434.671,419.018c6.543-11.509,19.023-20.346,32.234-19.495a61,61,0,0,0-16.042,38.683c-.217,5.548.119,11.741-3.564,15.9a13.635,13.635,0,0,1-9.24,4.1,40.5,40.5,0,0,1-10.288-.98l-.824.253C426.632,444.24,428.128,430.527,434.671,419.018Z" transform="translate(-366.191 -346.001)" fill="#f0f0f0"/>
    <path id="Path_10858" data-name="Path 10858" d="M466.9,398.813a52.136,52.136,0,0,0-23.213,22.137,22.452,22.452,0,0,0-2.457,6.591,12.877,12.877,0,0,0,.67,6.744,26.653,26.653,0,0,1,1.924,6.157,7.884,7.884,0,0,1-2.11,6.093,20.485,20.485,0,0,1-6.787,4.515c-2.738,1.3-5.6,2.6-7.541,5.021-.235.293-.676-.088-.442-.381,3.374-4.211,9.148-5,13.153-8.4a7.985,7.985,0,0,0,3.183-6.264c-.077-2.209-1.082-4.252-1.835-6.288a13.741,13.741,0,0,1-.9-6.57,20.755,20.755,0,0,1,2.195-6.661,50.579,50.579,0,0,1,9.3-12.783,53.06,53.06,0,0,1,14.671-10.467c.338-.162.524.391.189.552Z" transform="translate(-366.166 -345.014)" fill="#fff"/>
    <path id="Path_10859" data-name="Path 10859" d="M505.33,455.621a7.822,7.822,0,0,1-2.36-9.85c.171-.334.7-.084.527.25a7.243,7.243,0,0,0,2.214,9.158C506.015,455.4,505.632,455.84,505.33,455.621Z" transform="translate(-426.312 -382.887)" fill="#fff"/>
    <path id="Path_10860" data-name="Path 10860" d="M498.194,550.929a15.076,15.076,0,0,0,9.545-5.441c.236-.292.677.089.442.381a15.681,15.681,0,0,1-9.944,5.641c-.372.053-.413-.529-.043-.582Z" transform="translate(-422.965 -462.633)" fill="#fff"/>
    <path id="Path_10861" data-name="Path 10861" d="M573,432.4a4.428,4.428,0,0,0,3.957,1.411c.372-.058.412.524.043.582a4.961,4.961,0,0,1-4.381-1.551.3.3,0,0,1-.03-.411A.293.293,0,0,1,573,432.4Z" transform="translate(-482.582 -372.273)" fill="#fff"/>
    <path id="Path_10862" data-name="Path 10862" d="M491.162,551.775c-.231.043-.462.086-.695.133a58.314,58.314,0,0,0-9.117,2.52c-.231.08-.463.165-.691.252a61.47,61.47,0,0,0-19.333,11.765,59.691,59.691,0,0,0-6.262,6.562c-2.648,3.236-5.263,6.955-8.723,9.065a10.238,10.238,0,0,1-1.114.6l-19.937-8.27c-.036-.042-.074-.079-.11-.12l-.811-.294c.09-.128.187-.258.278-.386.052-.074.109-.147.161-.221.036-.049.073-.1.1-.144.012-.016.024-.033.034-.044.03-.046.063-.086.09-.128q.807-1.1,1.632-2.186s0,0,.008-.007a87.773,87.773,0,0,1,14.253-15.083c.161-.131.323-.266.493-.392a56.962,56.962,0,0,1,7.7-5.208,50.352,50.352,0,0,1,4.567-2.259,41.878,41.878,0,0,1,12.687-3.236c8.717-.809,17.595,1.178,24.28,6.654C490.826,551.491,490.993,551.63,491.162,551.775Z" transform="translate(-364.162 -461.946)" fill="#f0f0f0"/>
    <path id="Path_10863" data-name="Path 10863" d="M492.116,575.523a52.135,52.135,0,0,0-31.862,3.7,22.45,22.45,0,0,0-5.93,3.783,12.876,12.876,0,0,0-3.525,5.788,26.651,26.651,0,0,1-2.171,6.075,7.884,7.884,0,0,1-5.353,3.594,20.486,20.486,0,0,1-8.137-.481c-2.967-.613-6.039-1.3-9.044-.531-.364.093-.487-.478-.123-.57,5.229-1.331,10.317,1.513,15.556,1.216a7.985,7.985,0,0,0,6.313-3.086c1.268-1.81,1.7-4.046,2.321-6.126A13.741,13.741,0,0,1,453.4,583.1a20.755,20.755,0,0,1,5.763-4,50.581,50.581,0,0,1,15.123-4.606,53.059,53.059,0,0,1,18.016.475C492.665,575.042,492.481,575.6,492.116,575.523Z" transform="translate(-365.266 -485.46)" fill="#fff"/>
    <path id="Path_10864" data-name="Path 10864" d="M611.9,554.9a7.822,7.822,0,0,1,4.046-9.286c.338-.164.608.353.27.517a7.243,7.243,0,0,0-3.745,8.645C612.576,555.137,612.005,555.258,611.9,554.9Z" transform="translate(-513.785 -462.793)" fill="#fff"/>
    <path id="Path_10865" data-name="Path 10865" d="M549.665,642.4a15.076,15.076,0,0,0,10.9,1.4c.365-.091.487.479.123.57a15.681,15.681,0,0,1-11.336-1.483C549.02,642.706,549.338,642.217,549.665,642.4Z" transform="translate(-463.948 -540.145)" fill="#fff"/>
    <path id="Path_10866" data-name="Path 10866" d="M694.1,575.159a4.428,4.428,0,0,0,2.31,3.509c.332.177.013.667-.316.49a4.962,4.962,0,0,1-2.564-3.876.3.3,0,0,1,.224-.347A.293.293,0,0,1,694.1,575.159Z" transform="translate(-579.303 -486.249)" fill="#fff"/>
    <path id="Path_10867" data-name="Path 10867" d="M213.4,510.491c-2.792-13.5-6.282-18-6.282-18l-1.333-1.034-1.6-1.245.008-.16-.38-.129-.089-.069-.146-.112-.024.025-.05.051-7.256-2.466-9.205-3.127-4.262-5.54a7.372,7.372,0,0,0-5.9-2.877l-13.613.1a7.372,7.372,0,0,0-4.959,1.967l-8.948,8.3-13.942,6.659-.024-.024-.146.1-2.154,1.03.089.463-1.333.962s-3.49,4.188-6.282,16.75c-.71,3.2-1.06,10.053-1.186,18.5a3.225,3.225,0,0,0,3.224,3.273H211.37a3.226,3.226,0,0,0,3.224-3.27C214.47,521.429,214.121,513.957,213.4,510.491Z" transform="translate(-124.382 -407.019)" fill="#3f3d56"/>
    <path id="Path_10868" data-name="Path 10868" d="M572.041,191.732a10.924,10.924,0,1,0,0,21.848h81.411a10.924,10.924,0,1,0,0-21.848Z" transform="translate(-473.465 -179.959)" fill="#e5e5e5"/>
    <path id="Path_10869" data-name="Path 10869" d="M580.846,202.747a8.713,8.713,0,1,0,0,17.427h81.411a8.713,8.713,0,1,0,0-17.427Z" transform="translate(-482.27 -188.763)" fill="#fff"/>
    <circle id="ab6171fa-7d69-4734-b81c-8dff60f9761b" cx="17.835" cy="17.835" r="17.835" transform="translate(29.997 28.003)" fill="#9e616a"/>
    <path id="Path_10870" data-name="Path 10870" d="M339.064,443.962q-.114-.252-.228-.505c.029,0,.058.005.087.006Z" transform="translate(-295.796 -381.163)" fill="#2f2e41"/>
    <path id="Path_10871" data-name="Path 10871" d="M243.537,242.972a4.964,4.964,0,0,1,3.11-1.344c1.153.037,2.323,1.079,2.084,2.208a18.327,18.327,0,0,1,22.056-8.27c2.866,1.011,5.677,3.034,6.336,6a5.405,5.405,0,0,0,.681,2.215,2.529,2.529,0,0,0,2.692.682l.028-.008a.843.843,0,0,1,1.018,1.19l-.811,1.513a6.5,6.5,0,0,0,3.1-.066.842.842,0,0,1,.894,1.31,14.675,14.675,0,0,1-11.7,6.015c-3.24-.02-6.514-1.137-9.668-.391a8.4,8.4,0,0,0-5.648,11.789,2.738,2.738,0,0,0-3.833.23,5.257,5.257,0,0,0-1.148,4.022,18.662,18.662,0,0,0,1.916,6.264,18.727,18.727,0,0,1-11.1-33.359Z" transform="translate(-214.036 -214.158)" fill="#2f2e41"/>
    <path id="Path_10872" data-name="Path 10872" d="M87.464,495.253l5,27.216,3,.261Z" transform="translate(-69.91 -395.857)" opacity="0.2"/>
    <path id="Path_10873" data-name="Path 10873" d="M330.132,485.026l-5,29.249-3,.281Z" transform="translate(-257.477 -387.683)" opacity="0.2"/>
    <path id="Path_10874" data-name="Path 10874" d="M252.591,152.724a1.778,1.778,0,0,1-2.38-1.044,1.806,1.806,0,0,1,.946-2.463,1.9,1.9,0,0,1,1.433,3.507Zm-1.837-5.516-.763.318a.823.823,0,0,1-1.045-.383l-.038-.074a6.671,6.671,0,0,1-.278-5.343c.59-1.852.835-3.154.342-4.334-.57-1.364-1.786-1.792-3.337-1.173a2.835,2.835,0,0,0-1.267.717,1.087,1.087,0,0,1-.787.32,1.051,1.051,0,0,1-.752-.33,1.073,1.073,0,0,1-.007-1.465,8.336,8.336,0,0,1,2.819-1.936c3.333-1.392,5.011.663,5.778,2.5.751,1.8.329,3.467-.35,5.628a5.587,5.587,0,0,0,.11,4.449.819.819,0,0,1-.427,1.1Z" transform="translate(-218.824 -133.069)" fill="#6c63ff"/>
    <path id="Path_10875" data-name="Path 10875" d="M639.086,269.014h-16.2a.39.39,0,0,1,0-.78h16.2a.39.39,0,0,1,0,.78Z" transform="translate(-522.527 -241.107)" fill="#6c63ff"/>
    <path id="Path_10876" data-name="Path 10876" d="M741.467,269.662h-16.2a.39.39,0,0,1,0-.78h16.2a.39.39,0,1,1,0,.78Z" transform="translate(-604.361 -241.625)" fill="#6c63ff"/>
    <path id="Path_10877" data-name="Path 10877" d="M843.849,270.31h-16.2a.39.39,0,0,1,0-.78h16.2a.39.39,0,0,1,0,.78Z" transform="translate(-686.195 -242.143)" fill="#6c63ff"/>
    <path id="Path_10878" data-name="Path 10878" d="M946.227,270.958h-16.2a.39.39,0,0,1,0-.78h16.2a.39.39,0,0,1,0,.78Z" transform="translate(-768.026 -242.661)" fill="#6c63ff"/>
    <circle id="Ellipse_1466" data-name="Ellipse 1466" cx="3.01" cy="3.01" r="3.01" transform="translate(105.414 18.296)" fill="#6c63ff"/>
    <circle id="Ellipse_1467" data-name="Ellipse 1467" cx="3.01" cy="3.01" r="3.01" transform="translate(126.085 18.296)" fill="#6c63ff"/>
    <circle id="Ellipse_1468" data-name="Ellipse 1468" cx="3.01" cy="3.01" r="3.01" transform="translate(146.757 18.296)" fill="#6c63ff"/>
    <circle id="Ellipse_1469" data-name="Ellipse 1469" cx="3.01" cy="3.01" r="3.01" transform="translate(167.429 18.296)" fill="#6c63ff"/>
  </g>
</svg>
