<svg id="icon_twitter" data-name="icon/ twitter" xmlns="http://www.w3.org/2000/svg" xmlns:xlink="http://www.w3.org/1999/xlink" width="21" height="21" viewBox="0 0 21 21">
  <defs>
    <linearGradient id="linear-gradient" x1="0.5" x2="0.5" y2="1" gradientUnits="objectBoundingBox">
      <stop offset="0" stop-color="#0ab3d0"/>
      <stop offset="1" stop-color="#e468ca"/>
    </linearGradient>
  </defs>
  <g id="Rectangle_6814" data-name="Rectangle 6814" fill="rgba(10,179,208,0)" stroke="#9583cc" stroke-width="1">
    <rect width="21" height="21" rx="4" stroke="none"/>
    <rect x="0.5" y="0.5" width="20" height="20" rx="3.5" fill="none"/>
  </g>
  <path id="twit" d="M19.351,11.844a6.44,6.44,0,0,1-1.859.51,3.243,3.243,0,0,0,1.423-1.791,6.479,6.479,0,0,1-2.055.786A3.239,3.239,0,0,0,11.344,14.3a9.19,9.19,0,0,1-6.672-3.382,3.241,3.241,0,0,0,1,4.322,3.228,3.228,0,0,1-1.466-.405c0,.013,0,.027,0,.041A3.239,3.239,0,0,0,6.8,18.05a3.254,3.254,0,0,1-.853.113,3.207,3.207,0,0,1-.609-.058,3.24,3.24,0,0,0,3.024,2.248,6.531,6.531,0,0,1-4.792,1.34,9.205,9.205,0,0,0,14.171-7.755q0-.21-.009-.419A6.556,6.556,0,0,0,19.351,11.844Z" transform="translate(0.073 -6.092)" fill="url(#linear-gradient)"/>
</svg>
