<svg xmlns="http://www.w3.org/2000/svg" width="177" height="177" viewBox="0 0 177 177">
  <g id="Password_Coding" data-name="Password Coding" transform="translate(-118 -83)">
    <circle id="Ellipse_1473" data-name="Ellipse 1473" cx="88.5" cy="88.5" r="88.5" transform="translate(118 83)" fill="#e8f5f7"/>
    <g id="email" transform="translate(-256.183 130.536)">
      <path id="Path_10879" data-name="Path 10879" d="M653.732,274.341h-.026L638.7,280.749l-20.533,8.768a.662.662,0,0,1-.507,0l-21.184-8.789L581.1,274.351l-.023-.01h-.026a.916.916,0,0,0-.915.915V315a.916.916,0,0,0,.915.915h72.684a.916.916,0,0,0,.915-.915V275.256a.916.916,0,0,0-.915-.915Z" transform="translate(-158.754 -241.558)" fill="#fff"/>
      <path id="Path_10880" data-name="Path 10880" d="M656.011,179.312a.13.13,0,0,1-.075-.023L619.783,154.11a.656.656,0,0,0-.749,0l-35.893,25.177a.131.131,0,1,1-.15-.214L618.884,153.9a.918.918,0,0,1,1.048,0l36.154,25.178a.131.131,0,0,1-.075.238Z" transform="translate(-160.968 -146.268)" fill="#3f3d56"/>
      <path id="Path_10881" data-name="Path 10881" d="M435.67,38.03l34.252-25.385,34.512,27.191L471.687,59.249,453.908,55.2Z" transform="translate(-11.446 -4.093)" fill="#e6e6e6"/>
      <path id="Path_10882" data-name="Path 10882" d="M621.048,432.086H604.127a.791.791,0,1,1,0-1.581h16.924a.791.791,0,0,1,0,1.581Z" transform="translate(-177.085 -364.94)" fill="#0ab3d0"/>
      <path id="Path_10883" data-name="Path 10883" d="M610.2,415.9h-6.071a.791.791,0,1,1,0-1.581H610.2a.791.791,0,0,1,0,1.581Z" transform="translate(-177.086 -352.148)" fill="#0ab3d0"/>
      <path id="Path_10884" data-name="Path 10884" d="M678.229,207.222a.989.989,0,0,1-.375-.073l-21.124-8.765V170.947a.916.916,0,0,1,.915-.915H698.17a.916.916,0,0,1,.915.915V198.4l-.04.017-20.43,8.725A1,1,0,0,1,678.229,207.222Z" transform="translate(-219.271 -159.146)" fill="#fff"/>
      <path id="Path_10885" data-name="Path 10885" d="M677.983,207.041a1.055,1.055,0,0,1-.4-.078l-21.165-8.782V170.7a.982.982,0,0,1,.98-.98h40.525a.982.982,0,0,1,.98.98v27.5l-20.509,8.759A1.06,1.06,0,0,1,677.983,207.041Zm-21.3-9.035,21,8.715a.8.8,0,0,0,.61,0l20.35-8.69V170.7a.72.72,0,0,0-.719-.719H657.4a.72.72,0,0,0-.719.719Z" transform="translate(-219.025 -158.9)" fill="#3f3d56"/>
      <path id="Path_10886" data-name="Path 10886" d="M652.8,274.341h-.026l-15.007,6.408-20.533,8.768a.662.662,0,0,1-.507,0l-21.184-8.789-15.376-6.379-.023-.01h-.026a.916.916,0,0,0-.915.915V315a.916.916,0,0,0,.915.915H652.8a.916.916,0,0,0,.915-.915V275.256a.916.916,0,0,0-.915-.915ZM653.452,315a.654.654,0,0,1-.654.654H580.114a.654.654,0,0,1-.654-.654V275.256a.655.655,0,0,1,.629-.654l15.451,6.411,21.084,8.748a.931.931,0,0,0,.711,0l20.43-8.725,15.06-6.43a.656.656,0,0,1,.628.654Z" transform="translate(-158.016 -241.558)" fill="#3f3d56"/>
      <circle id="Ellipse_1470" data-name="Ellipse 1470" cx="9.944" cy="9.944" r="9.944" transform="translate(484.432 23.217)" fill="#0ab3d0"/>
      <path id="Path_10891" data-name="Path 10891" d="M754.137,118.309l-2.976-3.827,1.731-1.346,1.409,1.812,4.761-5.026,1.592,1.508Z" transform="translate(-260.708 -80.95)" fill="#fff"/>
      <g id="Group_17238" data-name="Group 17238" transform="translate(447.381 18.29)">
        <path id="Path_10928" data-name="Path 10928" d="M757.961,293.741a4.334,4.334,0,0,1-3.237-1.409,5.44,5.44,0,0,1-1.287-4.165,6.323,6.323,0,0,1,1.695-3.814,5.059,5.059,0,0,1,3.663-1.625,4.548,4.548,0,0,1,3.391,1.495,5.336,5.336,0,0,1,1.31,4.079h0a6.088,6.088,0,0,1-1.827,3.994A5.391,5.391,0,0,1,757.961,293.741Zm.835-9.473a4.168,4.168,0,0,0-3.825,4.034,3.9,3.9,0,0,0,.889,2.991,2.774,2.774,0,0,0,2.1.909,4.043,4.043,0,0,0,4-4.035h0a3.8,3.8,0,0,0-.912-2.9,3.025,3.025,0,0,0-2.255-.995Zm3.934,3.967Z" transform="translate(-747.709 -277.044)" fill="#0ab3d0"/>
        <g id="Group_17238-2" data-name="Group 17238" transform="translate(0 0)">
          <path id="Path_10929" data-name="Path 10929" d="M743.81,272.368a2.935,2.935,0,0,1-.512-.044,3.324,3.324,0,0,1-2.2-1.43,4.848,4.848,0,0,1-.668-3.155l.5-5.7a.77.77,0,0,1,1.534.135l-.5,5.7c-.144,1.634.455,2.731,1.6,2.934a2.467,2.467,0,0,0,1.8-.573,5.261,5.261,0,0,0,1.805-3.951,8.241,8.241,0,0,0-1.93-6.482,8.974,8.974,0,0,0-6.849-2.612,10.835,10.835,0,0,0-10.572,9.718,9.347,9.347,0,0,0,.215,3.009.77.77,0,0,1-1.5.36,10.885,10.885,0,0,1-.252-3.5,12.377,12.377,0,0,1,12.106-11.123,10.461,10.461,0,0,1,7.985,3.111,9.864,9.864,0,0,1,2.328,7.657,6.736,6.736,0,0,1-2.4,5.038,4.2,4.2,0,0,1-2.492.911Z" transform="translate(-726.242 -255.651)" fill="#0ab3d0"/>
          <path id="Path_10930" data-name="Path 10930" d="M748.479,347.656a10.392,10.392,0,0,1-6.884-2.534.77.77,0,0,1,1.017-1.156,8.854,8.854,0,0,0,5.867,2.151,9.772,9.772,0,0,0,4.4-.8.77.77,0,0,1,.6,1.419A11.213,11.213,0,0,1,748.479,347.656Z" transform="translate(-738.166 -325.275)" fill="#0ab3d0"/>
        </g>
      </g>
    </g>
  </g>
</svg>
