<svg xmlns="http://www.w3.org/2000/svg" width="177" height="177" viewBox="0 0 177 177">
  <g id="Password_Reset" data-name="Password Reset" transform="translate(-118 -83)">
    <circle id="Ellipse_1473" data-name="Ellipse 1473" cx="88.5" cy="88.5" r="88.5" transform="translate(118 83)" fill="#e8f5f7"/>
    <g id="Group_17240" data-name="Group 17240" transform="translate(-308.4 -266.706)">
      <path id="Path_10953" data-name="Path 10953" d="M701.336,565.32V552.253a18.921,18.921,0,0,0-37.842,0V565.32a9.838,9.838,0,0,0-9.4,9.823v30.879h56.633V575.144A9.838,9.838,0,0,0,701.336,565.32Zm-18.921-25.326a12.273,12.273,0,0,1,12.258,12.259V565.3H670.157V552.253a12.273,12.273,0,0,1,12.258-12.259Z" transform="translate(-166.738 -131.472)" fill="#0ab3d0"/>
      <path id="Path_10954" data-name="Path 10954" d="M687.506,580.569a5.091,5.091,0,1,0-7.954,4.207v11.065h5.726V584.776a5.084,5.084,0,0,0,2.228-4.207Z" transform="translate(-166.738 -131.472)" fill="#fff"/>
    </g>
  </g>
</svg>
